<svg width="419" height="292" viewBox="0 0 419 292" fill="none" xmlns="http://www.w3.org/2000/svg">
<defs>
<linearGradient id="g1" x1="0%" y1="50%" >
<stop offset="0%" stop-color="#d0028c" >
<animate id="a1" attributeName="stop-color" values="#d0028c; #069c6e" begin="0; a2.end" dur="3s" />
<animate id="a2" attributeName="stop-color" values="#069c6e; #d0028c" begin="a1.end" dur="3s" />
</stop>
<stop offset="100%" stop-color="#069c6e" >
<animate id="a3" attributeName="stop-color" values="#069c6e; #d0028c" begin="0; a4.end" dur="3s" />
<animate id="a4" attributeName="stop-color" values="#d0028c; #069c6e" begin="a3.end" dur="3s" />
</stop>
</linearGradient>
<filter id="filter0_d" x="85.852" y="212.189" width="238.557" height="53.1563" filterUnits="userSpaceOnUse" color-interpolation-filters="sRGB">
<feFlood flood-opacity="0" result="BackgroundImageFix"/>
<feColorMatrix in="SourceAlpha" type="matrix" values="0 0 0 0 0 0 0 0 0 0 0 0 0 0 0 0 0 0 127 0"/>
<feOffset dy="4"/>
<feGaussianBlur stdDeviation="2"/>
<feColorMatrix type="matrix" values="0 0 0 0 0.898039 0 0 0 0 0.129412 0 0 0 0 0.615686 0 0 0 0.5 0"/>
<feBlend mode="normal" in2="BackgroundImageFix" result="effect1_dropShadow"/>
<feBlend mode="normal" in="SourceGraphic" in2="effect1_dropShadow" result="shape"/>
</filter>
<filter id="filter1_d" x="90.075" y="103.557" width="228.372" height="171.911" filterUnits="userSpaceOnUse" color-interpolation-filters="sRGB">
<feFlood flood-opacity="0" result="BackgroundImageFix"/>
<feColorMatrix in="SourceAlpha" type="matrix" values="0 0 0 0 0 0 0 0 0 0 0 0 0 0 0 0 0 0 127 0"/>
<feOffset dy="4"/>
<feGaussianBlur stdDeviation="6"/>
<feColorMatrix type="matrix" values="0 0 0 0 0.898039 0 0 0 0 0.129412 0 0 0 0 0.615686 0 0 0 0.5 0"/>
<feBlend mode="normal" in2="BackgroundImageFix" result="effect1_dropShadow"/>
<feBlend mode="normal" in="SourceGraphic" in2="effect1_dropShadow" result="shape"/>
</filter>
<linearGradient id="paint0_linear" x1="209.162" y1="291.796" x2="209.162" y2="1.0534" gradientUnits="userSpaceOnUse">
<stop stop-color="#FFE600"/>
<stop offset="0.307292" stop-color="#FAAD14"/>
<stop offset="0.671875" stop-color="#F7169C"/>
<stop offset="1" stop-color="#3435F5"/>
</linearGradient>
<linearGradient id="paint1_linear" x1="212.356" y1="140" x2="248.856" y2="265.5" gradientUnits="userSpaceOnUse">
<stop offset="0.223958" stop-color="#FF009D"/>
<stop offset="0.880208" stop-color="#3435F5"/>
</linearGradient>
<linearGradient id="paint2_linear" x1="212.356" y1="140" x2="248.856" y2="265.5" gradientUnits="userSpaceOnUse">
<stop offset="0.223958" stop-color="#FF009D"/>
<stop offset="0.880208" stop-color="#3435F5"/>
</linearGradient>
<linearGradient id="paint3_linear" x1="212.356" y1="140" x2="248.856" y2="265.5" gradientUnits="userSpaceOnUse">
<stop offset="0.223958" stop-color="#FF009D"/>
<stop offset="0.880208" stop-color="#3435F5"/>
</linearGradient>
<linearGradient id="paint4_linear" x1="195.663" y1="154.629" x2="198.752" y2="249" gradientUnits="userSpaceOnUse">
<stop stop-color="white"/>
<stop offset="1" stop-color="#F7169C"/>
</linearGradient>
<linearGradient id="paint5_linear" x1="195.663" y1="154.629" x2="198.752" y2="249" gradientUnits="userSpaceOnUse">
<stop stop-color="white"/>
<stop offset="1" stop-color="#F7169C"/>
</linearGradient>
<linearGradient id="paint6_linear" x1="195.663" y1="154.629" x2="198.752" y2="249" gradientUnits="userSpaceOnUse">
<stop stop-color="white"/>
<stop offset="1" stop-color="#F7169C"/>
</linearGradient>
</defs>
<rect id="r" x="0" y="0" width="419" height="512" fill="url(#g1)" />
<path fill-rule="evenodd" clip-rule="evenodd" d="M195.243 283.687C201.373 294.499 216.951 294.499 223.081 283.687L235.238 262.244H183.086L195.243 283.687ZM173.834 245.923L155.328 213.282H262.996L244.49 245.923H173.834ZM146.076 196.961H272.248L290.754 164.32H127.57L146.076 196.961ZM118.318 147.999L99.8123 115.358H318.512L300.006 147.999H118.318ZM90.5596 99.0369H327.764L349.634 60.4607H68.6896L90.5596 99.0369ZM59.437 44.1401L47.9572 23.8909C41.9102 13.2248 49.6149 0 61.876 0H356.448C368.709 0 376.414 13.2248 370.367 23.891L358.887 44.1401H59.437Z" fill="url(#paint0_linear)"/>
<g fill="black" font-family="monospace" font-style="bold" font-weight="bolder" style="text-shadow:4px 4px #558ABB; text-align:center;">
<text>
<tspan x="35" y="105" dx="20" font-size="25">
88mph cDAI Pool Bond</tspan>
<tspan x="30" y="165" dx="10" font-size="12" >
0xf39fd6e51aad88f6f4ce6ab8827279cfffb92266</tspan>
<tspan x="165" y="190" dx="10" font-size="12" >
tokenId :1</tspan>
</text>
</g>
</svg>
